<svg xmlns="http://www.w3.org/2000/svg" width="160" height="140" viewBox="0 0 160 140">
  <defs>
    <linearGradient id="glow" x1="0%" y1="0%" x2="100%" y2="100%">
      <stop offset="0%" stop-color="#FFD85C" />
      <stop offset="100%" stop-color="#E08D23" />
    </linearGradient>
    <filter id="honey-glow" x="-50%" y="-50%" width="200%" height="200%">
      <feGaussianBlur in="SourceGraphic" stdDeviation="1" result="blur"/>
      <feMerge>
        <feMergeNode in="blur"/>
        <feMergeNode in="SourceGraphic"/>
      </feMerge>
    </filter>
  </defs>

  <!-- Hexagon Grid Pattern -->
  <g fill="none" stroke="url(#glow)" stroke-width="3">
    <!-- First Row -->
    <polygon points="40,0 80,0 100,35 80,70 40,70 20,35"/>
    <polygon points="120,0 160,0 180,35 160,70 120,70 100,35"/>

    <!-- Second Row -->
    <polygon points="0,70 40,70 60,105 40,140 0,140 -20,105"/>
    <polygon points="80,70 120,70 140,105 120,140 80,140 60,105"/>

    <!-- Offset hexes to fill horizontally -->
    <polygon points="160,70 200,70 220,105 200,140 160,140 140,105"/>
  </g>
</svg>